HIERARCHY
ROOT pelvis
{
	OFFSET -0.001795 -0.223333 0.028219
	CHANNELS 6 Xposition Yposition Zposition Zrotation Xrotation Yrotation
	JOINT spine1
	{
		OFFSET -0.002533 0.108963 -0.026696
		CHANNELS 3 Zrotation Xrotation Yrotation
		JOINT spine2
		{
			OFFSET 0.005487 0.135180 0.001092
			CHANNELS 3 Zrotation Xrotation Yrotation
			JOINT spine3
			{
				OFFSET 0.001457 0.052922 0.025425
				CHANNELS 3 Zrotation Xrotation Yrotation
				JOINT right_collar
				{
					OFFSET -0.081759 0.118833 -0.038615
					CHANNELS 3 Zrotation Xrotation Yrotation
					JOINT right_shoulder
					{
						OFFSET -0.096012 0.032551 -0.009144
						CHANNELS 3 Zrotation Xrotation Yrotation
						JOINT right_elbow
						{
							OFFSET -0.253742 -0.013329 -0.021400
							CHANNELS 3 Zrotation Xrotation Yrotation
							JOINT right_wrist
							{
								OFFSET -0.255299 0.007773 -0.005560
								CHANNELS 3 Zrotation Xrotation Yrotation
								End Site rpinky
								{
									OFFSET -0.132839 -0.013308 -0.070535
								}
								End Site rring
								{
									OFFSET -0.170050 -0.004601 -0.041005
								}
								End Site rmiddle
								{
									OFFSET -0.187762 -0.001626 -0.011538
								}
								End Site rindex
								{
									OFFSET -0.178543 -0.006168 0.026017
								}
								End Site rthumb
								{
									OFFSET -0.097521 -0.023151 0.093138
								}
								End Site right_index1
								{
									OFFSET -0.084621 -0.006118 -0.010315
								}
							}
						}
					}
				}
				JOINT left_collar
				{
					OFFSET 0.078845 0.121750 -0.034090
					CHANNELS 3 Zrotation Xrotation Yrotation
					JOINT left_shoulder
					{
						OFFSET 0.090977 0.030469 -0.008868
						CHANNELS 3 Zrotation Xrotation Yrotation
						JOINT left_elbow
						{
							OFFSET 0.259612 -0.012772 -0.027456
							CHANNELS 3 Zrotation Xrotation Yrotation
							JOINT left_wrist
							{
								OFFSET 0.249234 0.008986 -0.001171
								CHANNELS 3 Zrotation Xrotation Yrotation
								End Site lpinky
								{
									OFFSET 0.134809 -0.014322 -0.071885
								}
								End Site lring
								{
									OFFSET 0.172999 -0.005447 -0.041618
								}
								End Site lmiddle
								{
									OFFSET 0.191833 -0.002759 -0.012728
								}
								End Site lindex
								{
									OFFSET 0.182203 -0.006562 0.025221
								}
								End Site lthumb
								{
									OFFSET 0.104743 -0.021598 0.088013
								}
								End Site left_index1
								{
									OFFSET 0.084042 -0.008162 -0.014946
								}
							}
						}
					}
				}
				JOINT neck
				{
					OFFSET -0.002778 0.213871 -0.042857
					CHANNELS 3 Zrotation Xrotation Yrotation
					JOINT head
					{
						OFFSET 0.005152 0.064969 0.051349
						CHANNELS 3 Zrotation Xrotation Yrotation
						End Site lear
						{
							OFFSET 0.069154 0.068554 -0.028944
						}
						End Site rear
						{
							OFFSET -0.077038 0.065916 -0.031074
						}
						End Site leye
						{
							OFFSET 0.029363 0.095361 0.062678
						}
						End Site reye
						{
							OFFSET -0.037212 0.094865 0.061121
						}
						End Site nose
						{
							OFFSET -0.003764 0.060070 0.100377
						}
					}
				}
			}
		}
	}
	JOINT right_hip
	{
		OFFSET -0.067671 -0.090522 -0.004320
		CHANNELS 3 Zrotation Xrotation Yrotation
		JOINT right_knee
		{
			OFFSET -0.038290 -0.382569 -0.008850
			CHANNELS 3 Zrotation Xrotation Yrotation
			JOINT right_ankle
			{
				OFFSET 0.015774 -0.398415 -0.042312
				CHANNELS 3 Zrotation Xrotation Yrotation
				End Site RHeel
				{
					OFFSET -0.008381 -0.042855 -0.057845
				}
				End Site RSmallToe
				{
					OFFSET -0.060800 -0.059704 0.149275
				}
				End Site RBigToe
				{
					OFFSET 0.014577 -0.052963 0.193722
				}
				End Site right_foot
				{
					OFFSET -0.025372 -0.048144 0.123348
				}
			}
		}
	}
	JOINT left_hip
	{
		OFFSET 0.069520 -0.091407 -0.006815
		CHANNELS 3 Zrotation Xrotation Yrotation
		JOINT left_knee
		{
			OFFSET 0.034276 -0.375198 -0.004496
			CHANNELS 3 Zrotation Xrotation Yrotation
			JOINT left_ankle
			{
				OFFSET -0.013595 -0.397961 -0.043693
				CHANNELS 3 Zrotation Xrotation Yrotation
				End Site LHeel
				{
					OFFSET 0.009471 -0.033909 -0.060817
				}
				End Site LSmallToe
				{
					OFFSET 0.063119 -0.063840 0.145857
				}
				End Site LBigToe
				{
					OFFSET -0.006473 -0.056735 0.193718
				}
				End Site left_foot
				{
					OFFSET 0.026358 -0.055791 0.119288
				}
			}
		}
	}
}
MOTION
Frames: 10
Frame Time: 0.03333
-0.235047 0.026674 2.704739 179.916412 2.693213 132.197891 13.544063 30.989246 -5.181536 176.565247 -166.521088 -178.286850 3.387161 16.741533 9.756791 15.099301 6.477314 16.276756 25.243441 2.947103 29.726933 173.839325 -179.662140 -159.921997 -0.000000 0.000000 -0.000000 161.381119 177.136688 170.878052 130.978745 -175.060211 178.852768 171.859024 169.058578 96.161598 -0.000000 0.000000 -0.000000 6.494851 -11.797276 -3.859384 169.095901 168.492828 171.126389 163.141632 -157.577881 179.307434 16.753443 38.924328 -5.890755 172.351913 -176.281342 164.087051 5.030116 -38.546051 -1.960943 12.379595 56.481838 -9.588746 178.014771 -178.212540 175.008224
-0.237234 0.039115 2.714909 178.753525 3.343251 129.581772 14.571918 34.530144 -6.128022 176.443604 -167.050430 -178.242371 3.213696 16.124575 13.165791 12.513365 6.674783 17.092260 20.227417 1.722039 27.265106 170.560776 -179.750427 -171.254105 -0.000000 0.000000 -0.000000 162.768570 176.993057 170.622864 131.111877 -174.722641 179.733231 174.968521 171.686615 95.170891 -0.000000 0.000000 -0.000000 7.054083 -13.288890 -4.096629 166.990982 169.255661 167.432388 158.905838 -158.519470 178.641479 19.368082 36.246460 -6.705645 170.340073 -178.948929 157.501221 4.886954 -43.070244 -2.261571 4.214788 53.586304 -4.332242 178.402435 178.705933 177.125671
-0.239265 0.049186 2.723104 178.069885 3.611166 128.015900 14.820717 36.263355 -6.534135 175.735779 -165.931503 -177.969467 3.247217 15.912176 14.489014 10.695998 6.755870 17.589581 20.506924 1.543223 25.554472 169.379761 -179.936569 -175.272400 -0.000000 0.000000 -0.000000 164.285690 177.377945 171.426819 130.228012 -174.486649 -179.948318 174.116791 170.979980 95.583633 -0.000000 0.000000 -0.000000 7.026230 -13.557299 -4.041756 166.553696 169.234512 167.541397 158.324188 -156.896072 178.390991 19.007946 37.146984 -6.669147 171.063538 -178.381134 159.598236 5.505975 -44.407669 -2.090642 0.145884 53.734196 -1.963760 179.501068 179.306320 179.252777
-0.240553 0.057546 2.727539 177.876343 3.834565 127.318932 14.980629 37.128147 -6.753655 175.497437 -165.233673 -177.881317 2.888149 15.579226 15.062624 10.324505 6.838739 17.846781 20.738194 1.468405 24.738247 169.148102 -179.921082 -175.102509 -0.000000 0.000000 -0.000000 165.971237 177.470535 171.677673 128.990616 -174.374420 179.955215 175.022202 171.841217 95.910469 -0.000000 0.000000 -0.000000 7.160179 -13.549229 -4.143274 166.474854 168.754608 167.639145 157.922531 -156.343735 178.263062 18.906225 37.484135 -6.668522 171.028488 -178.659653 159.290207 6.169133 -44.903336 -1.848009 178.897293 126.161499 178.762772 1.257848 0.567937 2.967020
-0.241160 0.062872 2.737864 176.459824 2.484218 122.109787 14.320939 40.138672 -7.081249 175.637817 -163.475601 -177.937393 0.381271 18.128075 10.931080 4.338521 8.273284 22.916939 18.009331 1.116104 24.877602 161.760834 -178.340042 -164.158752 -0.000000 0.000000 -0.000000 173.133835 177.477081 172.011185 125.409332 -173.632675 -179.403687 1.426688 2.940387 -94.980301 -0.000000 0.000000 -0.000000 7.330451 -16.022396 -3.947373 166.182022 170.537827 171.614349 152.836075 -155.607727 177.190155 24.348459 31.408068 -7.980767 173.486664 178.544876 162.698532 9.438757 -46.849564 -0.548908 174.754364 124.451546 -178.792526 1.773705 -4.537622 1.573216
-0.242079 0.066975 2.749002 175.718231 1.306385 118.478783 13.428178 42.192547 -7.110452 175.048218 -161.936844 -177.735748 179.702530 161.389557 -170.282501 2.940723 8.779941 24.790674 15.917346 0.603709 22.279194 158.825226 -176.695404 -156.031189 -0.000000 0.000000 -0.000000 173.078476 178.151428 173.691666 126.506721 -172.412415 -176.364166 1.666641 2.985919 -101.138611 -0.000000 0.000000 -0.000000 6.987068 -16.483492 -3.631935 166.858383 172.427063 174.567673 151.949707 -153.639389 176.710022 24.231192 30.487125 -7.776005 174.934677 177.176514 165.139069 11.706918 -47.145882 0.415728 173.880722 125.146393 -178.281601 0.328572 -3.538492 -0.898974
-0.241790 0.065076 2.755656 173.602921 -0.528958 112.109245 12.460663 43.756367 -6.991897 174.178864 -159.940353 -177.461700 0.918100 19.393557 6.493873 178.507996 171.379532 -153.708557 13.377748 0.123376 19.266182 151.776474 -176.067963 -159.376587 -0.000000 0.000000 -0.000000 174.739273 175.830063 167.799438 121.272964 -173.678864 179.391815 14.562267 -13.612052 -105.787910 -0.000000 0.000000 -0.000000 4.386420 -16.928400 -1.663863 168.989883 175.654800 176.532257 154.281174 -149.270630 176.625122 22.006229 28.365704 -6.614436 177.919846 174.026016 170.462845 12.019577 -45.849197 0.527767 168.071167 127.754196 -175.023254 178.129822 -176.828674 174.725922
-0.238806 0.056998 2.730675 170.032700 -2.631452 101.637970 8.956890 41.494507 -5.231354 171.517548 -163.930786 -176.438416 5.447649 16.696760 -1.639691 6.922400 7.160069 19.335096 39.977043 1.867694 17.355492 132.261246 -151.091034 -112.635406 -0.000000 0.000000 -0.000000 2.833456 6.462348 -20.287701 116.153664 176.164795 160.030960 21.477880 -21.364515 -102.656418 -0.000000 0.000000 -0.000000 6.470415 -18.033110 -3.044499 169.974960 173.717743 -173.490799 157.974243 -149.267181 177.571335 17.773592 13.920772 -3.468867 0.160155 11.945808 -8.089335 13.619320 -44.349167 1.139625 162.419312 133.353516 -172.507843 1.918078 -4.870927 1.711156
-0.240340 0.047567 2.730310 166.882263 -4.836110 94.441666 6.845536 37.810635 -3.992630 172.479034 -162.559555 -176.825485 3.612772 19.443489 0.794684 9.515046 -0.684050 0.575946 58.916264 -1.386066 7.841381 173.786621 -176.175995 -67.429123 -0.000000 0.000000 -0.000000 179.049332 173.421036 160.462494 122.421326 176.092163 158.756134 18.903904 -18.397509 -103.233971 -0.000000 0.000000 -0.000000 4.456861 -17.821674 -1.604047 172.232803 175.076508 -172.002899 158.552994 -151.635620 177.943512 14.915403 2.562735 -1.813219 179.407654 163.154419 163.476166 16.323376 -43.130974 2.142930 161.985504 138.361526 -172.930084 5.206806 -4.733685 8.201582
-0.245373 0.035863 2.742303 164.922180 -7.620549 87.739746 6.142144 36.071171 -3.563238 175.507828 -162.893997 -177.892456 179.595581 160.883255 179.709869 5.983425 -0.925942 -0.865118 60.501087 4.432463 19.171989 174.498184 -177.640518 -76.731178 -0.000000 0.000000 -0.000000 4.721066 7.463207 -24.392584 118.156364 171.134384 150.388885 16.171240 -13.602353 -97.641075 -0.000000 0.000000 -0.000000 3.329434 -18.202595 -0.738109 175.355026 174.638947 -167.715729 162.715317 -152.429855 178.953613 12.860496 2.876720 -1.570626 176.520905 167.022842 159.000687 19.057625 -41.234509 3.034191 164.659119 142.020096 -174.575790 5.574000 1.111352 12.322565
